#!OML:ASF Y:\EmotionMaleHayes\Project 1\Capture day 1\Session 1\Male1.ASF
:FULLY-SPECIFIED
:DEGREES
780
root 0.687126 16.8703 -0.964772 467.186 87.4696 464.401
lowerback 6.86018 0.132312 2.81419
upperback 6.82964 0.527767 0.925295
thorax 3.23633 0.465708 -0.63439
lowerneck -23.3852 1.8537 2.64033
upperneck 29.7633 2.66482 -1.71651
head 14.1638 1.34601 -0.606262
rclavicle -9.54166e-015 -2.06736e-014
rhumerus 53.6453 11.2048 -31.3386
rradius 40.1478
rwrist -3.62505
rhand 0.339534 -31.267
rfingers 7.12502
rthumb 25.9155 -59.5206
lclavicle -9.54166e-015 -2.06736e-014
lhumerus 48.3038 -14.1445 23.0257
lradius 41.618
lwrist 9.08124
lhand -8.06743 -20.5178
lfingers 7.12502
lthumb 17.844 8.68351
rfemur 18.907 1.78053 11.1824
rtibia 4.68674
rfoot -22.0174 -5.86632
rtoes -8.75239
lfemur -19.2155 -0.879185 -13.4657
ltibia 25.6461
lfoot -8.33161 6.91524
ltoes -8.05212
781
root 0.771483 16.8782 -1.018 458.702 87.2639 455.885
lowerback 6.89066 0.197073 2.34308
upperback 6.93068 0.599017 0.827201
thorax 3.32208 0.487288 -0.474154
lowerneck -23.4687 1.83643 2.451
upperneck 29.6817 2.63021 -1.5062
head 14.1382 1.33613 -0.495634
rclavicle 1.19271e-015 -7.15625e-015
rhumerus 53.6848 11.2754 -31.2452
rradius 40.0678
rwrist -3.75329
rhand 0.0439939 -31.0593
rfingers 7.12502
rthumb 25.6325 -59.354
lclavicle 1.19271e-015 -7.15625e-015
lhumerus 48.2625 -14.071 23.0085
lradius 41.6343
lwrist 9.2389
lhand -8.13415 -20.5768
lfingers 7.12502
lthumb 17.7798 8.63042
rfemur 18.9087 2.31997 10.8314
rtibia 5.0476
rfoot -21.7567 -6.17148
rtoes -9.45746
lfemur -18.9265 -0.735753 -13.9865
ltibia 25.8692
lfoot -8.7369 6.94303
ltoes -8.76181
782
root 0.852838 16.8902 -1.06839 448.32 87.3015 445.467
lowerback 7.05465 0.356494 2.27325
upperback 6.84439 0.811025 0.714078
thorax 3.14657 0.588612 -0.563358
lowerneck -23.1343 1.84282 2.53794
upperneck 29.6365 2.60274 -1.45469
head 14.0471 1.34682 -0.496953
rclavicle 2.38542e-015 1.27222e-014
rhumerus 53.3395 11.5001 -31.3422
rradius 39.9702
rwrist -3.87197
rhand -0.288615 -30.7007
rfingers 7.12502
rthumb 25.3139 -59.0409
lclavicle 2.38542e-015 1.27222e-014
lhumerus 48.2421 -14.4078 22.8214
lradius 41.7843
lwrist 9.48166
lhand -7.99392 -20.5165
lfingers 7.12502
lthumb 17.9147 8.67842
rfemur 18.7311 2.85782 10.8581
rtibia 5.51128
rfoot -21.3844 -6.71407
rtoes -11.7275
lfemur -18.5367 -0.468477 -14.0718
ltibia 25.9246
lfoot -9.17237 6.96227
ltoes -8.32952
783
root 0.933428 16.9061 -1.12188 437.601 87.2475 434.72
lowerback 7.19219 0.463427 2.17155
upperback 6.88276 0.955027 0.638352
thorax 3.11394 0.659021 -0.592101
lowerneck -23.1542 1.92665 2.66681
upperneck 29.589 2.71462 -1.59
head 14.0383 1.38829 -0.552621
rclavicle -3.97569e-015 -7.95139e-015
rhumerus 53.2638 11.6468 -31.2504
rradius 39.9645
rwrist -3.97145
rhand -0.398838 -30.5795
rfingers 7.12502
rthumb 25.2083 -58.9346
lclavicle -3.97569e-015 -7.95139e-015
lhumerus 48.1198 -14.4801 22.6689
lradius 41.9162
lwrist 9.6751
lhand -7.7759 -20.4281
lfingers 7.12502
lthumb 18.1245 8.74747
rfemur 18.5479 3.15856 10.7011
rtibia 5.97862
rfoot -20.9593 -6.68627
rtoes -12.2897
lfemur -18.0689 -0.218661 -14.1675
ltibia 25.8672
lfoot -9.64604 6.90974
ltoes -6.76889
784
root 1.01983 16.9254 -1.17496 429.87 86.9955 426.989
lowerback 7.2232 0.532633 1.90311
upperback 6.99421 1.04072 0.541916
thorax 3.21241 0.696703 -0.543999
lowerneck -23.3135 1.95014 2.67686
upperneck 29.6098 2.77393 -1.69907
head 14.0851 1.39601 -0.586269
rclavicle -1.09332e-014 -1.43125e-014
rhumerus 53.2801 11.7898 -31.0761
rradius 40.029
rwrist -3.96072
rhand -0.285087 -30.8527
rfingers 7.12502
rthumb 25.3173 -59.1924
lclavicle -1.09332e-014 -1.43125e-014
lhumerus 47.9347 -14.4034 22.6199
lradius 42.0247
lwrist 9.6971
lhand -7.48885 -20.2772
lfingers 7.12502
lthumb 18.4006 8.87253
rfemur 18.4318 3.46646 10.3582
rtibia 6.53117
rfoot -20.7324 -6.32522
rtoes -10.667
lfemur -17.5148 0.0510411 -14.485
ltibia 25.7144
lfoot -10.016 6.84372
ltoes -6.13686
785
root 1.10663 16.9462 -1.22347 423.254 86.7493 420.359
lowerback 7.30261 0.628898 1.66336
upperback 7.02034 1.16146 0.462026
thorax 3.19519 0.749363 -0.498496
lowerneck -23.294 1.96483 2.5754
upperneck 29.6072 2.80887 -1.61896
head 14.0775 1.41074 -0.530378
rclavicle 3.57812e-015 3.97569e-015
rhumerus 53.2591 11.9536 -31.0584
rradius 39.9073
rwrist -3.79675
rhand -0.0150694 -31.136
rfingers 7.12502
rthumb 25.5759 -59.4388
lclavicle 3.57812e-015 3.97569e-015
lhumerus 47.8762 -14.5074 22.4829
lradius 42.0913
lwrist 9.74805
lhand -7.24912 -20.1123
lfingers 7.12502
lthumb 18.6312 9.01543
rfemur 18.2852 3.76817 10.1333
rtibia 7.1422
rfoot -20.5627 -6.09453
rtoes -9.91008
lfemur -17.0053 0.36509 -14.7325
ltibia 25.5899
lfoot -10.3285 6.84137
ltoes -6.33372
786
root 1.18763 16.968 -1.26862 416.978 86.4663 414.011
lowerback 7.42704 0.779646 1.46106
upperback 6.97763 1.35406 0.366058
thorax 3.08305 0.837552 -0.495998
lowerneck -23.1248 2.00914 2.53203
upperneck 29.5208 2.8508 -1.49475
head 14.002 1.44292 -0.466742
rclavicle 2.54444e-014 5.56597e-015
rhumerus 53.1567 12.1012 -31.0701
rradius 39.6089
rwrist -3.57149
rhand 0.110063 -31.0367
rfingers 7.12502
rthumb 25.6958 -59.3223
lclavicle 2.54444e-014 5.56597e-015
lhumerus 48.0272 -14.7611 22.2322
lradius 42.0594
lwrist 9.85037
lhand -7.17854 -20.0356
lfingers 7.12502
lthumb 18.6991 9.08568
rfemur 18.0282 4.04091 9.95001
rtibia 7.75723
rfoot -20.2283 -6.04182
rtoes -10.6614
lfemur -16.5682 0.64105 -14.92
ltibia 25.4205
lfoot -10.6157 6.9903
ltoes -6.58889
787
root 1.26755 16.9906 -1.3155 411.931 86.2045 408.864
lowerback 7.452 0.928313 1.36671
upperback 7.00159 1.5495 0.249165
thorax 3.09921 0.934571 -0.572747
lowerneck -23.1462 2.02232 2.60307
upperneck 29.4636 2.81961 -1.44769
head 13.9814 1.44289 -0.465954
rclavicle 1.45113e-014 -2.8625e-014
rhumerus 52.9527 12.1119 -31.1107
rradius 39.431
rwrist -3.17856
rhand 0.200437 -31.2668
rfingers 7.12502
rthumb 25.7823 -59.5398
lclavicle 1.45113e-014 -2.8625e-014
lhumerus 48.2111 -14.9202 21.9955
lradius 42.0864
lwrist 9.86022
lhand -7.10516 -19.9614
lfingers 7.12502
lthumb 18.7697 9.15306
rfemur 17.6989 4.02421 9.64763
rtibia 8.401
rfoot -19.6931 -5.83153
rtoes -11.3191
lfemur -16.1101 0.831319 -15.1018
ltibia 25.1189
lfoot -10.7668 7.18347
ltoes -7.02012
788
root 1.34614 17.0118 -1.36335 406.757 86.0364 403.552
lowerback 7.39946 1.02233 1.37701
upperback 7.03784 1.67511 0.18611
thorax 3.17139 1.00004 -0.647122
lowerneck -23.1503 2.03347 2.66677
upperneck 29.374 2.79909 -1.43749
head 13.9441 1.44077 -0.477068
rclavicle -7.95139e-015 -1.43125e-014
rhumerus 52.8357 12.1697 -31.0716
rradius 39.4437
rwrist -2.97559
rhand 0.513442 -31.8571
rfingers 7.12502
rthumb 26.0821 -60.0862
lclavicle -7.95139e-015 -1.43125e-014
lhumerus 48.1212 -15.006 21.762
lradius 42.2858
lwrist 9.85335
lhand -6.68702 -19.8769
lfingers 7.12502
lthumb 19.1718 9.19818
rfemur 17.2572 3.88619 9.44476
rtibia 9.19858
rfoot -19.3107 -5.47431
rtoes -10.6489
lfemur -15.721 0.990007 -15.1494
ltibia 24.8393
lfoot -10.8992 7.31528
ltoes -7.23839
789
root 1.42008 17.0333 -1.40903 403.321 85.8188 399.905
lowerback 7.3857 1.08153 1.2479
upperback 6.99649 1.74498 0.1351
thorax 3.13474 1.02882 -0.63112
lowerneck -23.0192 2.10978 2.73793
upperneck 29.1885 2.91421 -1.55292
head 13.8431 1.48029 -0.515917
rclavicle 6.16232e-015 -1.98785e-014
rhumerus 52.811 12.3309 -30.9512
rradius 39.4216
rwrist -3.04427
rhand 0.883521 -31.8204
rfingers 7.12502
rthumb 26.4364 -59.9968
lclavicle 6.16232e-015 -1.98785e-014
lhumerus 47.9504 -15.0828 21.6375
lradius 42.4191
lwrist 9.86248
lhand -6.01589 -19.7521
lfingers 7.12502
lthumb 19.8171 9.2576
rfemur 16.7051 3.74542 9.1334
rtibia 10.0477
rfoot -19.0123 -5.01121
rtoes -9.39275
lfemur -15.55 1.07863 -15.2868
ltibia 24.7734
lfoot -11.2382 7.46649
ltoes -7.17069
